<svg width="13" height="640" viewBox="0 0 13 640" fill="none" xmlns="http://www.w3.org/2000/svg">
<path d="M13 5L4.71015 -10H-9V669H4.71015L13 654L4.71015 639L13 625L4.71015 610L13 595L4.71015 580L13 566L4.71015 551L13 536L4.71015 521L13 507L4.71015 492L13 477L4.71015 462L13 447L4.71015 432L13 418L4.71015 403L13 388L4.71015 373L13 359L4.71015 344L13 329L4.71015 314L13 300L4.71015 285L13 270L4.71015 255L13 241L4.71015 226L13 211L4.71015 196L13 182L4.71015 167L13 152L4.71015 137L13 123L4.71015 108L13 93L4.71015 78L13 64L4.71015 49L13 34L4.71015 19L13 5Z" fill="#3472A1"/>
</svg>
