<svg width="13" height="640" viewBox="0 0 13 640" fill="none" xmlns="http://www.w3.org/2000/svg">
<path d="M0 5L8.28985 -10H22V669H8.28985L0 654L8.28985 639L0 625L8.28985 610L0 595L8.28985 580L0 566L8.28985 551L0 536L8.28985 521L0 507L8.28985 492L0 477L8.28985 462L0 447L8.28985 432L0 418L8.28985 403L0 388L8.28985 373L0 359L8.28985 344L0 329L8.28985 314L0 300L8.28985 285L0 270L8.28985 255L0 241L8.28985 226L0 211L8.28985 196L0 182L8.28985 167L0 152L8.28985 137L0 123L8.28985 108L0 93L8.28985 78L0 64L8.28985 49L0 34L8.28985 19L0 5Z" fill="#3472A1"/>
</svg>
