<svg width="19" height="19" viewBox="0 0 19 19" fill="none" xmlns="http://www.w3.org/2000/svg">
<circle cx="9.5" cy="9.5" r="9.5" fill="#F3EB2D"/>
<path fill-rule="evenodd" clip-rule="evenodd" d="M18.631 12.131L16.7089 11.5782C16.898 10.9206 17 10.2239 17 9.5C17 8.7761 16.898 8.0794 16.7089 7.42182L18.631 6.869C18.8713 7.70449 19 8.58721 19 9.5C19 10.4128 18.8713 11.2955 18.631 12.131ZM17.8162 4.90391L16.0666 5.87291C15.3832 4.63896 14.361 3.61681 13.1271 2.93339L14.0961 1.1838C15.6583 2.04904 16.951 3.34168 17.8162 4.90391ZM12.131 0.369037L11.5782 2.29112C10.9206 2.10198 10.2239 2 9.5 2C8.7761 2 8.0794 2.10198 7.42182 2.29112L6.869 0.369038C7.70449 0.128734 8.58721 0 9.5 0C10.4128 0 11.2955 0.128734 12.131 0.369037ZM4.90391 1.18381L5.87291 2.93339C4.63896 3.61681 3.61681 4.63896 2.93339 5.87291L1.1838 4.90391C2.04904 3.34169 3.34168 2.04904 4.90391 1.18381ZM0.369037 6.869C0.128734 7.70449 0 8.58721 0 9.5C0 10.4128 0.128734 11.2955 0.369038 12.131L2.29112 11.5782C2.10198 10.9206 2 10.2239 2 9.5C2 8.7761 2.10198 8.0794 2.29112 7.42182L0.369037 6.869ZM1.18381 14.0961L2.93339 13.1271C3.61681 14.361 4.63896 15.3832 5.87291 16.0666L4.90391 17.8162C3.34169 16.951 2.04904 15.6583 1.18381 14.0961ZM6.869 18.631C7.70449 18.8713 8.58721 19 9.5 19C10.4128 19 11.2955 18.8713 12.131 18.631L11.5782 16.7089C10.9206 16.898 10.2239 17 9.5 17C8.7761 17 8.0794 16.898 7.42182 16.7089L6.869 18.631ZM14.0961 17.8162L13.1271 16.0666C14.361 15.3832 15.3832 14.361 16.0666 13.1271L17.8162 14.0961C16.951 15.6583 15.6583 16.951 14.0961 17.8162Z" fill="#C8A425"/>
</svg>
